<svg xmlns="http://www.w3.org/2000/svg" height="1024" preserveAspectRatio="none" style="display: block;" version="1.1" viewBox="0 0 2048 2048" width="1024">
<defs>
	<linearGradient gradientUnits="userSpaceOnUse" id="Gradient1" x1="348.809" x2="390.5" y1="694.095" y2="669.724">
		<stop class="stop0" offset="0" stop-color="rgb(147,146,147)" stop-opacity="1"></stop>
		<stop class="stop1" offset="1" stop-color="rgb(189,188,189)" stop-opacity="1"></stop>
	</linearGradient>
	<linearGradient gradientUnits="userSpaceOnUse" id="Gradient2" x1="393.079" x2="468.921" y1="659.772" y2="660.222">
		<stop class="stop0" offset="0" stop-color="rgb(206,207,206)" stop-opacity="1"></stop>
		<stop class="stop1" offset="1" stop-color="rgb(255,255,255)" stop-opacity="1"></stop>
	</linearGradient>
</defs>
<path d="M 0 0 L 2048 0 L 2048 2048 L 0 2048 L 0 0 z" fill="rgb(255,255,255)" transform="translate(0,0)"></path>
<path d="M 1931.2 880.23 C 1950.28 879.839 1970.23 880.18 1989.37 880.231 C 1966.46 924.499 1934.7 970.753 1910.83 1016.49 C 1910.94 1024.07 1911.66 1031.62 1912.28 1039.18 C 1916.96 1042.5 1921.03 1045.48 1925.56 1049.04 C 1927.75 1048.95 1929.94 1048.91 1932.13 1048.9 C 1962.93 1048.86 1983.93 1079.93 1982.96 1108.39 C 1982.8 1113.05 1982.81 1115.02 1979.49 1118.27 C 1975.49 1119.44 1971.66 1117.99 1967.32 1117.2 C 1969.27 1119.78 1971.71 1122.75 1971.82 1126.18 C 1972.37 1143.59 1964.87 1161.9 1955.99 1176.52 C 1954.08 1180.74 1947.63 1186.79 1946.01 1190.52 C 1940.74 1202.62 1937.11 1212.07 1920.94 1209.61 C 1903.88 1207.01 1887.55 1194.51 1874.87 1182.76 C 1888.08 1220.02 1909 1297.43 1921.78 1338.49 C 1922.09 1339.46 1929.33 1338.96 1931.15 1342.53 C 1934.61 1349.31 1945.83 1376.4 1944.72 1382.28 C 1942.08 1387.03 1940.02 1385.62 1936.69 1389.03 C 1939.26 1403.21 1948.3 1432.93 1952.43 1447.61 C 1969.43 1446.93 1996.45 1448.17 1999.07 1470.23 C 1998.37 1473.18 1997.1 1473.84 1994.8 1475.87 L 1993.92 1476.63 L 1993.81 1478.39 L 1994.77 1479.59 C 1996.98 1482.39 2000.01 1485.48 1999.52 1489.25 C 1999.26 1491.19 1996.37 1494.86 1995.12 1495 C 1983.29 1497.14 1938.62 1498.44 1929.6 1491.68 C 1920.16 1484.61 1892.14 1413.52 1888.27 1401.29 C 1882.5 1402.43 1878.2 1402.82 1872.37 1403.38 C 1867.11 1395.35 1851.16 1368.11 1854.44 1360.11 C 1858.33 1356.84 1862.86 1356.01 1867.82 1354.52 C 1863.11 1346.17 1860.03 1339.72 1856.04 1331.03 C 1849.55 1316.68 1842.15 1300.49 1834.56 1286.82 C 1826.32 1303.32 1813.73 1329.14 1807.52 1346.11 C 1828.77 1381.58 1850.59 1425.18 1859.22 1465.94 C 1873.79 1534.8 1790.03 1522.46 1749.2 1517.15 C 1725.72 1514.1 1702.22 1509.15 1679.28 1502.93 C 1672.13 1501.1 1647.94 1491.31 1643.09 1492.03 C 1640.87 1501.15 1640.09 1500.33 1632.42 1504.66 C 1616.01 1514.25 1604.45 1504.83 1588.63 1505.18 C 1581.18 1505.34 1580.42 1506.74 1575.55 1498.49 C 1574.24 1496.27 1566.16 1493.45 1563.3 1491.55 C 1558.68 1488.48 1554.73 1485.29 1553.3 1479.64 C 1551.16 1472.48 1558.65 1456.05 1563.39 1449.11 C 1575.73 1431.03 1596.38 1392.76 1616.38 1384.38 C 1620.75 1382.56 1630.16 1388.32 1633.71 1391.04 C 1638.07 1394.38 1641.09 1394.6 1646.69 1395.56 C 1648.51 1390.76 1650.32 1384.81 1651.96 1379.86 C 1644.29 1364.71 1637.97 1347.97 1640.94 1330.9 C 1644.22 1312.1 1640.56 1324.02 1637.11 1314.18 C 1641.26 1283.34 1692.8 1221.46 1715.38 1198.89 C 1740.79 1173.5 1787.86 1129.49 1824.81 1129.01 C 1831.03 1121.54 1837.55 1115.44 1843.72 1107.62 C 1835.68 1077.69 1836.26 1067.2 1858.99 1044.37 C 1859.47 1035 1859.75 1025.61 1859.84 1016.22 C 1831.01 972.165 1805.07 925.419 1775.48 880.196 L 1835.18 880.238 C 1851.15 908.854 1868.73 935.751 1883.94 964.808 C 1898.72 936.263 1916.25 908.788 1931.2 880.23 z" fill="rgb(24,23,23)" transform="translate(0,0)"></path>
<path d="M 1652.13 1299.68 C 1652.6 1298.72 1653.07 1297.76 1653.56 1296.81 C 1678.78 1247.24 1756.75 1159.23 1809.77 1142.04 C 1817.71 1144.54 1829.32 1144.19 1834.92 1148.28 C 1834.87 1150.33 1835.03 1151.39 1835.23 1153.43 C 1838.29 1158.56 1853.05 1166.95 1859.3 1171.52 C 1864.65 1183.91 1873.94 1215.98 1878.17 1229.79 C 1889.65 1267.52 1900.9 1305.32 1911.91 1343.18 C 1901.55 1345.27 1887.58 1349.29 1877.07 1352 C 1868.95 1330.14 1820.54 1226.14 1806.75 1213.77 C 1804.73 1211.96 1803.72 1211.59 1801.07 1211.78 L 1799.39 1213.92 C 1798.76 1219.3 1826.15 1268.5 1830.15 1275.83 C 1825.98 1283.44 1797.48 1341.78 1795.57 1343.03 C 1793.21 1339.34 1790.63 1337.77 1786.4 1336.44 C 1742.56 1322.7 1695.65 1314.15 1652.13 1299.68 z" fill="rgb(134,134,134)" transform="translate(0,0)"></path>
<path d="M 1802.45 1158.91 C 1805.05 1160.9 1805.6 1162.3 1805.39 1165.24 C 1803.14 1168.41 1773.37 1191.04 1768.41 1195.05 C 1758.08 1203.26 1748.25 1212.08 1738.96 1221.45 C 1729.69 1230.82 1720.95 1240.7 1712.77 1251.03 C 1707.44 1257.65 1690.12 1281.72 1684.88 1285.22 C 1682.34 1283.66 1682.09 1283.74 1680.32 1281.43 C 1681.68 1276.03 1686.22 1269.9 1689.65 1265.53 C 1717.86 1229.59 1762.61 1181.02 1802.45 1158.91 z" fill="rgb(24,23,23)" transform="translate(0,0)"></path>
<path d="M 1668.61 1290.49 C 1683.24 1291.57 1786.52 1318.54 1800.85 1324.87 C 1802 1328.52 1801.38 1327.92 1799.96 1332.42 C 1798.83 1332.3 1797.11 1332.16 1796.02 1331.85 C 1755.39 1320.01 1713.71 1311.9 1673.27 1299.43 C 1670.07 1298.45 1669.2 1297.63 1667.56 1295 L 1668.61 1290.49 z" fill="rgb(24,23,23)" transform="translate(0,0)"></path>
<path d="M 1654.03 1310.94 C 1664.22 1313.12 1676.14 1317.62 1686.5 1320.37 C 1709.67 1326.52 1732.97 1333 1756.17 1338.96 C 1766.83 1341.7 1784.98 1346.47 1795.44 1346.92 C 1800.24 1353.93 1804.71 1361.14 1808.85 1368.56 C 1822.24 1392.46 1857.04 1464.6 1849.22 1489.25 C 1846.83 1496.78 1840.69 1502.46 1833.76 1505.88 C 1790.88 1527.02 1654.26 1481.92 1607.29 1466.97 C 1610.56 1457.82 1614.81 1450.02 1619.82 1441.75 L 1733.53 1471.35 C 1749.55 1475.54 1816.05 1499.1 1823.41 1478.25 C 1823.37 1467.8 1822.86 1459.99 1820.8 1449.84 C 1817.96 1435.83 1797.43 1368.54 1788.22 1362.44 C 1785.08 1362.42 1786.58 1362.05 1783.73 1364.06 C 1781.4 1372.74 1825.8 1463.74 1812.67 1475.96 C 1807.18 1477.62 1801.69 1476.94 1795.86 1476.72 C 1786.61 1470.66 1778.33 1461.15 1769.72 1454.54 C 1739.44 1431.28 1723.85 1427.59 1701.59 1396.16 C 1708.79 1397.04 1714.08 1397.52 1721.05 1395.01 C 1728.94 1392.16 1743.12 1385.41 1746.4 1377.43 C 1745.94 1373.56 1746.8 1375.02 1744.13 1372.68 C 1737.91 1373.39 1727.23 1385.78 1715.59 1387.33 C 1679.92 1392.06 1681.77 1348.14 1677.88 1324.59 L 1676.16 1324.14 C 1656.88 1340.39 1687.58 1394.63 1697.91 1410.53 L 1672.92 1402.24 C 1669.12 1393.09 1665.04 1381.77 1661.17 1372.86 C 1649.95 1346.93 1649.19 1338.12 1654.03 1310.94 z" fill="rgb(255,255,255)" transform="translate(0,0)"></path>
<path d="M 1868.67 1098.08 C 1875.56 1098.41 1885.74 1100.79 1886.71 1109.09 C 1880.84 1111.02 1873.19 1104.87 1867.98 1108.81 L 1868.17 1111.35 C 1871.04 1113.92 1892.82 1117.41 1897.46 1118.09 C 1896.42 1114.02 1895.88 1110 1895.22 1105.85 C 1906.29 1098.12 1905.62 1102.74 1916.93 1105.65 C 1928.92 1108.73 1946.2 1110.49 1957.47 1114.77 C 1956.89 1116.84 1930.89 1126.73 1942.68 1139.76 C 1949.14 1137.22 1945.06 1129.78 1960.29 1125.17 C 1971.77 1128.35 1948.05 1181.58 1934.47 1187.79 L 1933.37 1186.78 C 1933.92 1182.56 1937.3 1179.47 1940.17 1175.99 C 1944.37 1169.75 1957.36 1149.61 1957.02 1142.54 C 1954.48 1139.43 1956.01 1140.44 1952.42 1139.17 L 1950.84 1140.41 C 1949.93 1144.51 1950.2 1146.68 1946.74 1148.83 C 1939.29 1148.14 1908.32 1139.68 1902.44 1136.09 C 1886.7 1146.61 1916.64 1172.54 1918.79 1180.71 L 1917.72 1182.09 C 1899.32 1182.25 1888.88 1165.67 1886.22 1149.15 C 1885.29 1143.38 1885.78 1127.47 1883.93 1123.36 C 1880.24 1121.74 1880.28 1121.7 1876.33 1121.17 C 1873.54 1124.59 1879.01 1127.48 1876.55 1132.47 C 1861.76 1136.52 1848.26 1110.07 1868.67 1098.08 z" fill="rgb(255,255,255)" transform="translate(0,0)"></path>
<path d="M 1923.29 1113.67 C 1926.35 1112.41 1929.86 1113.78 1931.25 1116.77 C 1932.64 1119.77 1931.43 1123.33 1928.49 1124.85 C 1926.48 1125.9 1924.05 1125.75 1922.18 1124.48 C 1920.3 1123.2 1919.28 1121 1919.51 1118.74 C 1919.75 1116.48 1921.2 1114.54 1923.29 1113.67 z" fill="rgb(24,23,23)" transform="translate(0,0)"></path>
<path d="M 1630 1403.83 C 1648.65 1406.41 1687.42 1414.96 1703.37 1423.6 C 1718.93 1432.03 1757.66 1457.65 1769.68 1470.56 L 1769.21 1471.41 L 1764.74 1470.53 C 1729.37 1459.42 1692.44 1452.12 1656.69 1442.18 C 1646.51 1439.34 1631.87 1436.73 1623.11 1431.15 C 1618.02 1423.06 1625.29 1410.75 1630 1403.83 z" fill="rgb(255,255,255)" transform="translate(0,0)"></path>
<path d="M 1883.44 1041.19 C 1899.17 1039.59 1905.37 1045.64 1917.61 1054.29 C 1909.63 1061.82 1900.14 1070.05 1902.28 1082.04 C 1904.88 1080.11 1909.88 1069.51 1915.52 1065.13 C 1935.27 1049.79 1951.46 1063.02 1965.23 1079.26 C 1945.87 1078.37 1935.12 1081.35 1917.24 1088.41 C 1899.44 1096.27 1898.64 1079.27 1876.32 1085.67 C 1885.18 1088.38 1898.13 1091.13 1895.9 1102.96 C 1890.48 1100.39 1886.12 1088.25 1876.44 1087.08 C 1867.1 1085.96 1859.23 1090.59 1852.1 1095.54 C 1843.63 1069.65 1860.09 1049.88 1883.44 1041.19 z" fill="rgb(255,255,255)" transform="translate(0,0)"></path>
<path d="M 1922.03 1391.11 C 1922.61 1391 1924.13 1391.12 1924.79 1391.15 C 1933.01 1401.93 1940.74 1462.86 1950.7 1468.24 C 1954.26 1466.73 1954.58 1462.32 1956.77 1460.02 C 1965.21 1451.13 1981.81 1463.24 1988.5 1468.42 C 1983.57 1469.2 1974.73 1469.25 1975.46 1475.66 C 1978.15 1479.48 1982.81 1481.51 1987.02 1483.92 L 1985.92 1484.65 C 1976.1 1485.68 1947.73 1486.09 1938.55 1483.64 C 1930.85 1481.58 1922.15 1456.88 1918.73 1448.67 C 1911.79 1432.01 1904.96 1415.31 1898.22 1398.57 C 1905.89 1395.95 1914.25 1393.53 1922.03 1391.11 z" fill="rgb(255,255,255)" transform="translate(0,0)"></path>
<path d="M 1919.07 1351.21 L 1922.33 1351.23 C 1926.06 1355.17 1935.75 1374.62 1931.46 1378.75 L 1929.96 1379.11 C 1917.8 1383.53 1892.82 1389.87 1879.46 1393.76 C 1874.36 1385.18 1869.18 1375 1864.41 1366.12 C 1882.46 1361.39 1901.01 1355.31 1919.07 1351.21 z" fill="rgb(134,134,134)" transform="translate(0,0)"></path>
<path d="M 1919.07 1351.21 L 1922.33 1351.23 C 1926.06 1355.17 1935.75 1374.62 1931.46 1378.75 L 1929.96 1379.11 C 1929.23 1378.55 1927.69 1377.44 1927.51 1376.68 C 1926.28 1371.39 1917.68 1355.62 1919.07 1351.21 z" fill="rgb(184,184,184)" transform="translate(0,0)"></path>
<path d="M 1617.06 1394.54 C 1620.07 1395.12 1618.83 1394.37 1621.05 1396.33 C 1620.14 1401.5 1613.28 1406.58 1610.54 1417.47 C 1609.17 1418.57 1607.83 1419.71 1606.53 1420.9 C 1594.99 1431.33 1582.34 1449.57 1576.77 1464.42 C 1575.22 1468.55 1574.7 1478.32 1574.55 1482.65 L 1574.5 1484.34 L 1572.43 1486.14 C 1552.03 1477.89 1574.82 1448.64 1582.43 1437.53 C 1592.24 1423.23 1604.15 1405.94 1617.06 1394.54 z" fill="rgb(255,255,255)" transform="translate(0,0)"></path>
<path d="M 1610.34 1429.73 C 1614.07 1440.78 1608.34 1439.25 1603.23 1448.04 C 1599.89 1453.79 1585.73 1470.91 1592.7 1477.18 C 1599.87 1483.62 1610.37 1474.75 1617.22 1482.61 C 1611.63 1483.32 1592.34 1484.23 1587.5 1482.25 C 1578.54 1470.42 1603.04 1439.04 1610.34 1429.73 z" fill="rgb(255,255,255)" transform="translate(0,0)"></path>
<path d="M 1916.83 1093.47 C 1926.84 1092.67 1961.9 1091.31 1969.32 1095.64 C 1971.71 1099.35 1971.59 1102.89 1972.06 1107.38 C 1950.56 1099.82 1936.37 1099.2 1916.83 1093.47 z" fill="rgb(134,134,134)" transform="translate(0,0)"></path>
<path d="M 1809.77 1142.04 C 1825.07 1138.42 1847.99 1146.23 1859.12 1157.05 L 1859.38 1158.43 C 1854.28 1157.43 1841.6 1150.67 1834.92 1148.28 C 1829.32 1144.19 1817.71 1144.54 1809.77 1142.04 z" fill="rgb(184,184,184)" transform="translate(0,0)"></path>
<path d="M 1869.93 1142.36 C 1871.08 1142.69 1872.51 1143.27 1873.66 1143.7 C 1874.98 1146.07 1881.35 1171.82 1880.97 1172.8 C 1875.72 1167.21 1868.61 1157.49 1867.36 1149.9 C 1866.67 1145.75 1867.7 1145.53 1869.93 1142.36 z" fill="rgb(255,255,255)" transform="translate(0,0)"></path>
<path d="M 1846.74 1119.92 C 1849.19 1126.17 1852.06 1132.43 1854.62 1138.74 L 1854.15 1139.59 L 1851.74 1138.53 C 1846.71 1136.29 1840.74 1135.02 1839.44 1129.5 C 1840.91 1125.47 1843.75 1123.1 1846.74 1119.92 z" fill="rgb(134,134,134)" transform="translate(0,0)"></path>
<path d="M 1889.11 1179.75 C 1896.77 1181.38 1915.35 1196.3 1924.59 1195.76 C 1926.21 1195.66 1928.63 1196.18 1930.29 1196.46 L 1931.03 1198.49 C 1915.64 1203.13 1900.33 1188.69 1889.11 1179.75 z" fill="rgb(122,122,122)" transform="translate(0,0)"></path>
<path d="M 1629.91 1491.44 L 1630.34 1492.52 C 1623.83 1499.83 1614.44 1498.19 1605.35 1497.93 L 1604.55 1495.94 C 1607.35 1492.65 1621.89 1493.88 1629.91 1491.44 z" fill="rgb(255,255,255)" transform="translate(0,0)"></path>
<path d="M 159.395 613.272 C 159.397 607.849 159.777 601.1 160.556 595.437 C 165.508 559.462 205.482 523.73 242.4 527.655 C 254.863 528.98 264.574 539.646 271.37 549.746 C 275.059 547.821 278.792 545.982 282.568 544.233 C 294.2 538.802 304.802 534.688 317.34 531.6 C 332.644 527.83 349.54 535.55 340.425 553.223 C 331.681 570.177 308.211 579.41 290.739 584.647 C 293.854 602.851 294.317 606.796 307.475 619.897 C 314.246 626.64 302.654 632.372 297.961 634.924 C 297.643 653.27 301.012 672.971 299.754 691.534 C 298.453 710.748 275.326 706.152 267.416 712.332 C 267.272 714.131 267.076 714.969 269.083 716.153 C 294.632 731.22 332.878 764.746 342.007 793.592 L 342.415 794.923 C 350.81 790.487 360.851 783.987 369.102 778.953 C 358.974 757.905 338.554 705.809 331.674 682.481 C 345.145 677.7 358.475 672.53 371.647 666.977 C 364.888 641.726 370.657 641.698 393.462 633.604 C 414.208 626.241 416.755 629.58 425.83 647.928 C 443.079 643.065 469.179 630.317 485.555 631.856 L 487.452 632.055 C 488.968 626.523 490.448 618.612 496.34 616.481 C 503.128 614.026 517.691 606.194 524.863 608.827 L 525.758 610.866 C 524.535 614.897 521.313 616.988 518.027 619.913 C 510.376 646.895 521.502 691.496 543.949 710.259 C 548.656 714.194 556.929 711.436 562.513 716.398 C 566.227 727.999 528.584 728.929 522.367 730.888 C 503.244 736.915 484.264 742.972 465.001 748.574 C 468.548 761.436 469.945 770.039 468.155 783.19 C 472.425 789.922 484.385 811.164 484.483 818.285 C 478.687 826.529 467.493 833.893 457.064 831.771 C 451.999 830.74 449.736 825.677 447.205 821.623 L 440.999 826.261 C 446.675 854.99 451.794 882.155 455.541 911.301 C 451.317 906.485 447.253 901.306 443.22 896.305 C 440.292 894.639 439.129 894.366 437.807 891.288 C 434.823 889.041 429.512 885.201 427.845 882.042 C 421.105 869.267 421.429 825.048 411.909 816.604 C 400.522 814.731 400.976 852.099 396.593 857.091 C 393.122 856.781 391.895 856.919 388.813 855.201 C 387.605 849.582 394.39 822.712 395.956 815.715 C 382.589 826.676 368.799 837.112 354.618 846.999 C 350.794 846.76 347.131 846.808 343.311 846.816 C 337.308 837.228 329.759 826.569 323.338 817.138 C 314.32 821.547 305.349 826.052 296.428 830.654 C 298.527 834.38 301.379 838.347 301.457 842.461 C 299.405 845.983 299.73 844.93 294.755 846.736 C 266.937 856.022 252.936 864.532 231.255 884.958 L 225.539 890.822 C 217.141 900.905 204.614 915.381 199.691 927.386 C 197.498 932.905 195.197 938.38 192.788 943.808 C 187.447 925.191 180.763 898.931 176.268 879.346 C 165.584 832.801 144.879 770.705 160.819 724.215 C 169.659 698.432 189.372 694.816 197.419 670.445 C 198.317 667.76 199.102 660.869 197.629 658.424 C 188.383 643.084 167.596 628.679 159.395 613.272 z" fill="rgb(24,23,23)" transform="translate(0,0)"></path>
<path d="M 194.894 696.281 C 217.988 705.511 243.179 715.353 258.949 737.119 C 269.642 751.878 297.732 794.302 298.332 815.472 C 298.4 817.872 295.502 819.629 293.617 820.913 C 286.604 820.222 283.468 803.216 274.005 797.144 C 272.196 796.965 269.93 796.953 268.208 796.422 C 263.927 795.101 245.854 752.244 241.629 744.954 C 231.102 726.79 216.978 716.676 196.842 711.222 C 190.867 712.951 179.458 716.163 178.935 723.648 L 181.155 724.507 C 185.584 724.075 188.396 721.891 192.306 719.601 C 218.66 724.493 228.384 739.084 239.561 761.576 C 246.117 774.768 251.654 787.993 257.152 801.648 C 241.724 814.208 232.932 820.862 214.527 829.287 C 197.033 794.548 184.685 780.411 179.783 740.947 L 178.597 740.22 C 165.387 752.966 187.035 799.348 194.497 811.569 C 198.377 817.924 205.815 837.792 211.009 838.71 C 226.827 841.506 259.599 812.238 268.929 805.394 C 276.016 814.477 289.969 843.243 294.755 846.736 C 266.937 856.022 252.936 864.532 231.255 884.958 L 225.539 890.822 C 217.141 900.905 204.614 915.381 199.691 927.386 C 196.763 919.271 192.662 901.329 190.323 891.85 C 179.282 847.094 161.702 793.096 165.705 747.049 C 167.699 724.11 177.597 710.063 194.894 696.281 z" fill="rgb(134,134,134)" transform="translate(0,0)"></path>
<path d="M 225.539 890.822 C 222.675 886.805 215.015 873.997 213.168 869.598 C 210.171 862.465 186.411 825.206 188.424 820.607 L 190.931 820.447 C 202.681 825.359 224.829 871.392 231.255 884.958 L 225.539 890.822 z" fill="rgb(24,23,23)" transform="translate(0,0)"></path>
<path d="M 427.368 824.777 L 428.191 823.553 L 429.538 823.886 C 435.466 844.709 439.19 874.508 443.22 896.305 C 440.292 894.639 439.129 894.366 437.807 891.288 C 435.407 870.171 431.357 845.698 427.368 824.777 z" fill="rgb(255,255,255)" transform="translate(0,0)"></path>
<path d="M 425.142 814.932 C 429.903 813.163 434.565 810.76 439.388 812.192 L 439.952 813.84 C 439.319 815.087 430.868 823.003 429.538 823.886 L 428.191 823.553 L 427.368 824.777 C 426.71 823.33 425.525 816.804 425.142 814.932 z" fill="rgb(88,87,88)" transform="translate(0,0)"></path>
<path d="M 450.784 667.638 C 452.11 689.53 463.838 717.319 477.024 735.055 C 466.141 738.152 455.287 741.35 444.464 744.648 C 446.424 739.385 449.074 734.647 447.366 729.531 C 444.186 726.759 444.761 727.587 440.035 726.59 C 427.464 728.892 415.273 732.145 404.107 738.622 C 403.36 739.848 397.442 744.847 394.988 748.92 C 390.052 757.114 386.111 765.454 380.54 773.175 L 379.041 773.214 C 371.093 762.747 356.071 719.625 350.306 704.274 C 383.585 689.313 416.814 681.127 450.784 667.638 z" fill="rgb(134,134,134)" transform="translate(0,0)"></path>
<path d="M 444.329 711.549 C 442.163 706.174 432.864 684.548 432.975 680.374 C 435.021 677.142 433.682 678.409 437.336 676.66 C 439.294 676.993 439.693 676.602 440.475 678.059 C 444.238 685.073 454.243 711.22 454.047 718.182 C 451.104 723.32 445.793 724.679 440.176 725.216 L 437.509 723.752 C 436.954 716.377 438.681 715.597 444.329 711.549 z" fill="rgb(24,23,23)" transform="translate(0,0)"></path>
<path d="M 437.509 723.752 L 440.176 725.216 L 440.035 726.59 C 427.464 728.892 415.273 732.145 404.107 738.622 L 402.404 737.706 L 402.331 736.155 C 408.602 728.766 427.968 724.919 437.509 723.752 z" fill="rgb(255,255,255)" transform="translate(0,0)"></path>
<path d="M 380.85 696.285 C 386.387 698.487 396.327 729.617 398.898 736.792 C 399.199 737.634 395.882 740.188 395.106 740.893 C 386.804 738.446 378.422 711.456 376.938 702.829 C 376.386 699.625 378.844 698.243 380.85 696.285 z" fill="rgb(24,23,23)" transform="translate(0,0)"></path>
<path d="M 276.628 586.333 C 278.674 586.004 277.678 585.824 279.569 587.094 L 280.695 593.555 C 277.03 595.991 271.112 594.222 266.59 597.366 C 261.855 600.658 246.076 609.086 250.958 615.925 C 256.696 616.947 275.782 602.789 281.947 598.684 C 283.574 600.19 285.179 608.721 285.911 611.621 L 297.32 623.277 C 293.052 628.068 291.026 630.797 287.379 635.985 C 267.892 645.17 250.408 643.443 230.789 636.978 C 230.969 678.403 241.49 678.421 278.707 689.172 C 283.775 688.807 286.342 687.455 288.944 691.946 L 288.233 694.176 C 271.991 709.081 247.127 687.563 232.278 679.768 C 224.861 675.874 217.156 673.395 209.646 669.67 C 208.895 662.958 205.217 654.306 205.589 650.454 C 209.42 651.358 212.89 652.76 215.929 650.026 C 215.198 639.198 200.705 638.483 201.834 627.343 C 203.606 609.865 216.927 615.629 227.958 620.152 C 228.359 620.782 228.769 621.406 229.187 622.026 C 231.755 625.832 232.275 626.394 236.308 627.157 L 238.471 625.615 C 242.705 616.624 240.003 605.384 237.836 596.211 C 250.568 590.792 263.054 588.466 276.628 586.333 z" fill="rgb(255,255,255)" transform="translate(0,0)"></path>
<path d="M 276.9 605.698 C 278.459 605.978 279.005 606.305 280.491 606.883 C 282.191 610.454 281.854 612.859 279.866 616.116 C 276.806 617.451 269.986 616.086 266.091 615.987 C 263.186 616.449 263.003 616.662 260.165 616.16 C 261.388 613.774 273.524 607.629 276.9 605.698 z" fill="rgb(24,23,23)" transform="translate(0,0)"></path>
<path d="M 231.472 537.156 C 248.168 535.95 253.862 542.175 262.915 555 C 248.521 561.915 186.341 589.515 188.336 606.628 C 189.903 609.467 191.406 609.872 194.3 611.419 L 195.41 612.001 L 195.449 613.446 C 192.302 618.052 188.505 624.952 185.591 629.942 C 178.704 623.265 174.245 618.96 168.791 611.121 C 168.806 573.39 195.941 545.643 231.472 537.156 z" fill="rgb(134,134,134)" transform="translate(0,0)"></path>
<path d="M 432.811 738.161 L 434.477 739.123 C 432.668 744.106 424.724 746.823 421.896 753.742 L 422.751 755.585 C 432.509 758.866 451.349 751.363 457.733 753.584 C 460.275 761.51 449.778 770.792 452.578 775.212 C 454.966 774.277 456.614 773.682 459.066 772.945 L 459.812 774.478 C 458.786 780.413 457.317 780.413 453.388 785.552 C 453.338 787.694 453.264 788.978 453.011 791.104 C 450.004 794.817 445.582 796.655 441.268 798.983 C 430.054 804.162 424.356 804.902 412.007 807.131 C 399.069 801.119 396.911 796.3 392.256 783.491 C 398.367 756.452 404.154 744.763 432.811 738.161 z" fill="rgb(255,255,255)" transform="translate(0,0)"></path>
<path d="M 320.223 541.16 C 324.404 540.703 326.977 539.983 330.828 541.271 C 331.839 542.906 332.761 543.637 331.876 545.987 C 320.351 576.572 263.75 577.758 239.245 585.729 C 228.542 589.211 211.115 601.748 203.109 607.148 C 199.901 609.451 197.573 610.524 194.077 608.602 L 194.672 609.489 L 194.267 608.073 C 201.693 597.044 225.631 586.212 237.291 579.631 C 264.663 564.185 289.671 549.744 320.223 541.16 z" fill="rgb(122,122,122)" transform="translate(0,0)"></path>
<path d="M 260.423 721.114 C 288.388 742.254 321.491 764.742 333.023 800.147 C 324.713 805.069 318.067 808.422 309.463 812.608 C 297.09 780.838 282.181 749.025 259.608 723.12 L 260.423 721.114 z" fill="rgb(134,134,134)" transform="translate(0,0)"></path>
<path d="M 385.583 781.877 C 388.238 786.792 386.563 794.7 392.808 806.259 C 385.995 812.047 355.517 836.709 348.168 837.128 L 346.116 834.678 C 341.61 827.084 337.384 820.212 333.665 812.167 C 344.985 803.96 372.609 788.96 385.583 781.877 z" fill="rgb(255,255,255)" transform="translate(0,0)"></path>
<path d="M 287.978 645.068 C 289.197 645.062 288.555 644.892 289.744 645.994 C 290.505 656.522 290.069 671.294 290.023 682.224 C 274.821 680.473 265.738 676.829 251.676 670.828 C 239.13 665.274 239.343 661.803 237.822 649.19 C 256.845 653.372 269.957 652.342 287.978 645.068 z" fill="rgb(51,50,51)" transform="translate(0,0)"></path>
<path d="M 459.159 664.66 L 470.586 660.347 C 470.847 665.108 471.554 669.835 472.698 674.464 C 475.478 685.805 487.24 718.689 497.138 724.641 L 496.063 726.783 L 496.776 728.668 C 492.965 730.216 488.368 731.723 484.957 728.644 C 469.852 715.011 462.205 683.512 459.159 664.66 z" fill="rgb(134,134,134)" transform="translate(0,0)"></path>
<path d="M 505.087 721.962 C 493.969 705.424 482.364 684.123 480.157 663.872 C 479.548 658.293 480.084 641.998 483.758 637.637 C 490.374 638.952 488.534 656.479 490.081 662.595 C 494.901 681.641 503.199 703.43 515.052 719.133 L 515.972 720.341 C 511.853 720.766 509.133 721.117 505.087 721.962 z" fill="rgb(134,134,134)" transform="translate(0,0)"></path>
<path d="M 205.173 678.169 C 211.933 681.798 220.775 684.586 227.794 688.5 C 238.48 694.458 248.207 700.617 259.057 706.452 L 258.764 707.865 C 257.407 714.621 256.762 715.623 260.423 721.114 L 259.608 723.12 C 241.524 704.334 222.975 697.999 199.232 688.036 L 205.173 678.169 z" fill="rgb(134,134,134)" transform="translate(0,0)"></path>
<path d="M 502.365 625.791 C 504.625 628.943 503.874 637.837 504.483 642.442 C 508.517 672.937 514.747 698.944 538.667 719.053 L 537.53 719.666 C 524.467 718.345 526.001 713.636 518.115 705.425 C 508.038 694.933 489.323 634.155 502.365 625.791 z" fill="rgb(255,255,255)" transform="translate(0,0)"></path>
<path d="M 409.537 640.199 L 411.146 640.738 C 414.089 644.197 415.01 647.764 416.615 652.057 C 405.651 655.381 395.552 659.016 384.785 662.882 C 382.493 663.576 383.308 663.513 381.02 663.21 C 378.639 659.772 378.745 655.605 378.28 651.271 C 387.939 644.273 398.086 642.604 409.537 640.199 z" fill="rgb(134,134,134)" transform="translate(0,0)"></path>
<path d="M 394.108 670.712 C 404.707 667.07 465.62 643.173 471.952 644.913 C 470.078 651.926 451.245 656.579 444.802 658.967 C 430.364 664.32 415.985 669.997 401.471 675.128 C 397.08 674.548 396.673 676.05 393.875 674.19 L 394.108 670.712 z" fill="url(#Gradient2)" transform="translate(0,0)"></path>
<path d="M 401.471 675.128 C 384.426 681.142 367.129 687.378 350.122 693.547 C 346.758 694.767 347.254 694.511 345.097 693.247 C 344.548 691.755 344.389 691.113 345.387 689.456 C 346.193 688.121 347.342 687.027 348.715 686.288 C 355.555 682.586 384.898 673.922 394.108 670.712 L 393.875 674.19 C 396.673 676.05 397.08 674.548 401.471 675.128 z" fill="url(#Gradient1)" transform="translate(0,0)"></path>
<path d="M 462.819 794.659 C 467.15 797.831 471.356 811.023 473.109 816.296 C 467.894 819.258 466.524 820.097 460.642 821.866 C 455.579 818.037 453.065 812.36 449.985 806.777 C 456.39 802.495 458.092 800.407 462.819 794.659 z" fill="rgb(122,122,122)" transform="translate(0,0)"></path>
<path d="M 515.972 720.341 C 512.817 724.684 502.197 727.233 496.776 728.668 L 496.063 726.783 L 497.138 724.641 C 499.298 723.775 502.781 722.728 505.087 721.962 C 509.133 721.117 511.853 720.766 515.972 720.341 z" fill="rgb(255,255,255)" transform="translate(0,0)"></path>
<path d="M 815.8 879.46 C 882.814 869.72 945.071 916.049 954.987 983.037 C 964.903 1050.02 918.738 1112.4 851.776 1122.5 C 784.566 1132.62 721.904 1086.25 711.951 1019.01 C 701.998 951.776 748.537 889.237 815.8 879.46 z" fill="rgb(24,23,23)" transform="translate(0,0)"></path>
<path d="M 826.446 929.709 C 865.537 926.078 900.222 954.697 904.079 993.766 C 907.937 1032.83 879.52 1067.69 840.474 1071.77 C 801.106 1075.89 765.906 1047.18 762.016 1007.79 C 758.127 968.403 787.033 933.37 826.446 929.709 z" fill="rgb(255,255,255)" transform="translate(0,0)"></path>
<path d="M 319.48 880.004 C 386.354 871.196 447.658 918.398 456.236 985.302 C 464.814 1052.21 417.401 1113.35 350.468 1121.69 C 283.86 1130 223.081 1082.87 214.545 1016.29 C 206.009 949.71 252.931 888.769 319.48 880.004 z" fill="rgb(24,23,23)" transform="translate(0,0)"></path>
<path d="M 321.824 929.781 C 361.164 922.588 398.862 948.722 405.928 988.084 C 412.994 1027.45 386.739 1065.06 347.354 1072 C 308.149 1078.91 270.743 1052.8 263.71 1013.61 C 256.676 974.431 282.664 936.941 321.824 929.781 z" fill="rgb(255,255,255)" transform="translate(0,0)"></path>
<path d="M 587.255 878.418 C 626.983 875.826 661.237 890.972 685.267 922.71 C 673.172 934.016 662.473 946.511 650.768 958.251 C 638.138 944.809 628.774 935.981 610.057 931.11 C 592.002 926.541 572.874 929.298 556.845 938.779 C 541.081 948.048 530.617 963.23 526.312 980.893 C 521.41 1000.52 524.715 1021.3 535.465 1038.44 C 559.082 1076.26 604.608 1082.51 640.963 1059.09 L 640.962 1037 L 596.248 1037.1 L 596.406 989.081 L 619.371 989.115 L 692.164 989.03 C 691.977 1018.43 693.188 1048.49 692.504 1077.66 C 690.919 1079.85 689.247 1081.97 687.49 1084.02 C 637.837 1140.99 540.975 1135.13 497.643 1075.1 C 440.215 995.54 486.393 884.425 587.255 878.418 z" fill="rgb(24,23,23)" transform="translate(0,0)"></path>
<path d="M 1352.96 871.803 C 1381.13 899.94 1409.63 927.73 1438.48 955.166 C 1456.85 972.751 1476.76 992.603 1495.6 1009.25 C 1494.24 966.929 1494.68 922.282 1494.43 879.799 L 1545.87 879.807 C 1545.62 963.666 1548.1 1047.04 1548.05 1130.5 L 1547.05 1131.41 C 1528.64 1111.65 1510.35 1094.5 1491.34 1075.66 L 1404.78 989.527 C 1405.25 1033.93 1405.32 1078.33 1405.01 1122.73 C 1387.78 1122.09 1370.36 1122.35 1353.11 1122.45 L 1352.96 871.803 z" fill="rgb(24,23,23)" transform="translate(0,0)"></path>
<path d="M 1574.87 876.667 C 1588.06 887.044 1614.94 915.092 1628.31 928.131 C 1657.13 956.239 1688.01 984.229 1716.14 1012.69 L 1715.49 880.066 L 1766.95 879.919 L 1766.11 1131.25 L 1765.75 1133.29 C 1761.92 1131.98 1639.53 1007.12 1624 992.163 C 1624.28 1035.45 1624.25 1078.74 1623.9 1122.03 L 1574.67 1121.99 C 1573.83 1040.21 1573.89 958.437 1574.87 876.667 z" fill="rgb(24,23,23)" transform="translate(0,0)"></path>
<path d="M 1271.96 879.918 L 1323.2 880.016 L 1323.15 929.5 L 1323.15 995.153 C 1323.15 1030.68 1326.27 1073.95 1299.46 1100.05 C 1253.3 1145 1155.22 1127.91 1144.93 1057.24 C 1141.07 1030.72 1142 1008.36 1141.99 982.45 L 1141.81 880.077 L 1192.99 880.019 L 1192.95 981.91 C 1192.93 1001.41 1192.1 1020.7 1194.24 1040.13 C 1199.08 1084.04 1265.15 1085.4 1270.67 1040.98 C 1273.04 1021.96 1272.12 1002.62 1272.11 983.389 L 1271.96 879.918 z" fill="rgb(24,23,23)" transform="translate(0,0)"></path>
<path d="M 979.897 879.994 C 1024.6 879.092 1072.96 880.079 1117.89 880.249 C 1117.49 895.94 1117.26 911.635 1117.19 927.33 C 1088.79 927.309 1060.38 927.503 1031.98 927.911 L 1031.94 977.678 L 1105.98 977.269 C 1105.99 986.2 1106.66 1015.94 1105.42 1023.02 C 1102.68 1024.7 1098.72 1024.17 1095.32 1024.1 L 1032.01 1023.97 L 1031.89 1121.67 C 1014.54 1121.78 997.188 1121.64 979.839 1121.23 L 979.897 879.994 z" fill="rgb(24,23,23)" transform="translate(0,0)"></path>
<path d="M 80.9834 869.138 L 130.715 869.382 C 130.222 936.697 130.085 1004.01 130.304 1071.33 L 211.191 1071.74 L 211.103 1117.98 L 80.9147 1117.77 L 80.9834 869.138 z" fill="rgb(24,23,23)" transform="translate(0,0)"></path>
<path d="M 273.84 1142.55 L 284.994 1146.34 C 274.273 1174.63 266.371 1205 254.657 1232.94 C 251.636 1240.14 242.013 1252.46 237.248 1259.21 L 207.429 1301.46 L 157.785 1372.24 C 148.946 1384.83 132.219 1409.57 121.672 1419.78 C 127.368 1426.41 137.214 1436.56 145.783 1436.87 C 163.41 1437.52 163.629 1464.93 155.18 1475.25 C 148.451 1478.51 110.402 1477.31 101.461 1476.86 C 88.7933 1465.23 57.3005 1432.61 46.8454 1418.44 C 41.0081 1410.53 67.8079 1392.32 71.3424 1384.87 C 67.7627 1379.11 68.6795 1377.07 71.6476 1370.88 C 88.7255 1335.29 100.737 1280.74 122.693 1249.25 C 138.199 1228.61 153.273 1214.13 169.371 1194.87 C 170.935 1185.61 174.637 1158.76 177.536 1151.66 C 180.84 1150.12 183.449 1150.47 186.047 1152.9 C 187.44 1157.91 180.369 1197.27 178.299 1200.13 C 167.358 1217.88 137.163 1242.25 128.337 1260.22 C 111.546 1294.39 93.6161 1340.78 81.1029 1376.68 C 96.6122 1384.16 108.969 1391.61 123.49 1400.69 C 145.094 1374.92 172.155 1332.18 192.443 1303.5 L 224.831 1257.81 C 228.783 1252.29 242.408 1234.02 244.652 1228.55 C 255.743 1201.53 264.647 1170.43 273.84 1142.55 z" fill="rgb(24,23,23)" transform="translate(0,0)"></path>
<path d="M 74.087 1399.44 C 90.899 1413.89 106.354 1408.73 115.419 1432.04 C 123.445 1435.78 126.858 1440.16 134.346 1444.38 C 137.621 1446.22 141.986 1446.31 145.587 1448.26 L 144.7 1448.93 C 134.351 1449.72 117.967 1451.82 109.025 1446.41 C 102.02 1442.16 72.4535 1408.84 71.562 1402.78 L 74.087 1399.44 z" fill="rgb(255,255,255)" transform="translate(0,0)"></path>
<path d="M 62.9225 1408.74 C 65.0211 1410.09 67.7902 1414.66 69.6495 1416.95 C 80.8034 1430.72 90.2429 1448.13 106.172 1456.52 C 119.845 1463.72 138.507 1456.58 148.325 1460.63 C 150.122 1463.83 149.672 1462.03 148.748 1466.38 L 146.25 1466.99 L 106.789 1467.29 C 97.4276 1459.27 90.061 1450.3 81.5267 1441.44 C 73.0422 1432.64 64.2626 1423.98 55.6051 1415.34 L 62.9225 1408.74 z" fill="rgb(255,255,255)" transform="translate(0,0)"></path>
<path d="M 80.5155 1388.9 C 87.8063 1392.42 112.751 1405.76 118.211 1410.39 L 118.294 1412.44 C 111.6 1409.85 81.3662 1397.73 79.1217 1393.66 L 80.5155 1388.9 z" fill="rgb(255,255,255)" transform="translate(0,0)"></path>
<path d="M 416.575 1131.91 C 419.946 1136.1 428.967 1183.38 428.884 1191.63 C 428.706 1209.45 427.516 1230.31 426.648 1248.38 L 421.889 1350.93 C 420.754 1372.86 418.548 1399.63 418.849 1421.18 C 423.726 1422.5 428.751 1425.08 433.425 1426.33 C 458.369 1433.02 460.44 1438.01 461.286 1462.95 C 455.257 1466.07 428.282 1473.17 422.287 1471.94 C 407.142 1468.83 355.48 1466.05 345.043 1459.48 C 338.177 1447.43 350.11 1430.47 348.741 1418.1 C 342.047 1357.59 320.041 1293.92 329.18 1233.04 C 329.542 1226.49 333.233 1208.04 334.579 1200.81 C 327.965 1184.65 320.796 1168.72 313.082 1153.06 C 317.032 1153.11 321.19 1153.48 325.147 1153.76 C 332.843 1167.39 339.225 1183.81 345.568 1198.37 C 342.852 1217.68 336.51 1242.71 336.845 1261.78 C 337.733 1312.33 353.861 1364.84 358.609 1414.79 C 375.022 1418.29 391.896 1414.22 408.113 1411.09 C 408.156 1394.49 409.942 1373.51 410.743 1356.61 L 415.628 1251.79 C 416.588 1233.03 418.704 1204.94 417.918 1186.95 C 417.541 1178.34 409.26 1147.97 406.715 1137.95 L 416.575 1131.91 z" fill="rgb(24,23,23)" transform="translate(0,0)"></path>
<path d="M 403.952 1423.45 C 404.069 1423.47 415.953 1430.1 417.316 1430.81 C 426.79 1435.73 432.436 1437.46 442.684 1440.03 C 424.153 1446.01 417.37 1445.34 398.779 1441.93 C 384.918 1439.53 371.019 1438.17 356.976 1435.46 L 359.654 1425.75 C 378.809 1427.52 384.801 1426.15 403.952 1423.45 z" fill="rgb(255,255,255)" transform="translate(0,0)"></path>
<path d="M 354.734 1444.87 C 371.196 1449 409.075 1453.47 426.625 1454.62 C 428.229 1454.73 443.809 1449.99 449.213 1449.61 C 450.812 1451.71 450.467 1453.72 450.519 1456.46 C 447.012 1457.47 428.983 1462.6 426.585 1462.38 C 404.192 1460.34 375.919 1456.14 354.009 1452.13 C 353 1449.7 354.019 1448.05 354.734 1444.87 z" fill="rgb(255,255,255)" transform="translate(0,0)"></path>
<path d="M 528.655 619.994 C 558.21 626.107 583.28 694.206 560.464 709.435 C 529.597 708.646 507.149 636.563 528.655 619.994 z" fill="rgb(24,23,23)" transform="translate(0,0)"></path>
<path d="M 530.218 630.248 C 549.708 638.685 561.58 678.134 559.264 698.548 C 555.338 698.849 548.357 693.127 546.129 690.149 C 532.881 672.438 528.618 652.007 530.218 630.248 z" fill="rgb(51,50,51)" transform="translate(0,0)"></path>
<metadata><recraft-signature>{"signed_by": "recraft", "signature_b64": "Td9m2CeMu05OwQOyNPgzR60Q5g1b/3ETGdTMGcImJgByjgKq24oWdyshGR2SaHTYCPwlXvHWN/C1lSsfqxvCBw==", "signing_algo": "Ed25519", "generation_timestamp": 1766229115, "identifier": "e7202073-27d6-4c24-9427-5eb225a62a4d"}</recraft-signature></metadata></svg>